<svg xmlns="http://www.w3.org/2000/svg" viewBox="0 0 649.14 258.58">
  <defs>
    <style>
      .cls-1 {
        fill: #fff;
      }
    </style>
  </defs>
  <title>Ativo 1</title>
  <g id="Camada_2" data-name="Camada 2">
    <g id="Camada_1-2" data-name="Camada 1">
      <g>
        <path class="cls-1" d="M248.25,25.55c2.13,25.14-27.51,59-48.38,77.55,19.68-8.3,44.35-23.48,44.35-23.48l3.56,9.72s-34.39,29.17-61.9,39.37c16.84,17.55,35.34,107.43-23.71,104.58-55.49-2.85-36.28-81.11-26.32-115.49,15.89-53.36,47-107.19,78.73-116.44C231.88-3.61,246.59,5.16,248.25,25.55ZM160,205.55c21.58,7.59,13.75-54.31,7.59-68.77C164.53,146.74,146.75,201,160,205.55ZM220.74,22.23C209.59,20.34,193.23,67.29,184,90.3,226,51.88,230.22,25.32,220.74,22.23Z"/>
        <path class="cls-1" d="M253,175.67c-22.53-3.79-36.76-22.05-31.3-49.09,8.06-39.84,42.21-87.51,86.32-75.89,38.42,10-6.4,71.14-49.56,68.3a95.85,95.85,0,0,0-2.85,11.86c-3.32,20.63,9,28.69,24.66,24.43,23-6.4,57.15-33.44,67.59-62.61-15.41-4.51-19-17.31-14.47-28,9.72-22.77,41.26-19.68,46.48,6.4a17.59,17.59,0,0,0,2.85-1.66h.24c12.09-6.64,22.77-11.86,28-14.23,29.64-14.23,33.44.71,26.8,18.26-3.56,9.25-46.48,77.78-18.5,75.41,16.36-1.19,35.57-37.23,35.57-37.23l5.69,8.77s-20.16,45.3-47,54.07c-26.56,8.77-41.5-15.42-35.1-47.9,2.13-9.72,9.72-32.73,14.23-42.21-4,2.13-8.54,3.56-12.33,5.93C363.26,137.73,305.16,184.21,253,175.67Zm47.43-93.44c1.66-4,5.22-15.89-1.9-16.6-3.79-.24-9.49,2.13-15.89,9-6.88,7.35-14,19.21-19.21,31.3C273.14,104.29,293.3,98.6,300.41,82.23Zm45.3-21.58c-5.45,3.32-1.66,15.89,5.69,18C354.25,74.64,355.2,55.43,345.71,60.65Z"/>
        <path class="cls-1" d="M529.38,42.09a119.82,119.82,0,0,0-9,12.81c15.23-.6,27.57-.41,29.88.9,6.2,3.9,3.61,7.8-5.76,9.9-4.08.73-19,4.2-35.32,7.59-15.46,26.71-30.49,58.67-32.71,69-2,10.82,0,17.57,6.19,17.2,16.17-.31,48-30.15,48-30.15l3.23,9s-31.13,39.62-58.34,46.46c-15.89,3.89-27.14-3.13-32.16-15.75-7.5-19.41,6.9-57.34,23-87.81-4.79.69-8.36,1-10,.65-9.46-.75-17.59-21.61-3.72-23.48,0,0,12.15-.77,27.88-1.82a168.9,168.9,0,0,1,11.79-16c11.66-13.62,25.07-20,44.3-15.42C542.56,26.66,537.27,32.31,529.38,42.09Z"/>
        <path class="cls-1" d="M554.3,162.32c-2.23-8.12-16.65-10.37-27.2-8.27-12.76,2.7-18.56,11.36-18.23,5.31,1.22-26.85,65-53.69,67.78-60.09-35.77,11.15-51.09,16.37-58.93,8.91-11.75-11.31,5.81-39.94,6.73-34.55,0,0-2.14,8.13,14.38,7.57,9.47-.21,51.85-8.09,73.27-5,16.12,2.33,10,25.28,6.28,22.65-7-5.47-38.58,13.66-57.54,32.27a36.77,36.77,0,0,1,21,14.24,328.55,328.55,0,0,1,61.18-23.58l6.07,8.82c-8.45,3.66-46.37,18.81-60.68,32.1.8,16.53-6.53,39.66-6.53,39.66-8.57,28.15-24.94,57.08-46,56.18-14.28-.54-24.1-11.74-25.75-25.9C507.48,207.05,536.58,175.9,554.3,162.32Zm-14.46,69.54c4.85,0,13.75-20.83,14.87-41.39-8.44,8-21,20.44-21.91,32.76C532.51,228.31,534.26,231.8,539.84,231.86Z"/>
        <path class="cls-1" d="M78.79,74.43c12.27-1.28,23.77,3.83,31.95,12.78,7.16,8.18,10.48,18.66,10.74,30.16,21-9.2,45.75-24.79,45.75-24.79l4.09,10.48s-26.84,23-53.16,36.55C107.93,174.87,75,210.15,43,211.43v-.26C17.45,214-5.3,189.19,1.09,157.49,11.82,104.59,54.25,74.68,78.79,74.43ZM37.64,162.1c-2,12.52,1.53,23.51,16.87,20.45,16.61-5.62,28.88-18.66,36.29-33.23h-.26c-17.89,2-33.23-8.44-39.62-24.28C44.54,137.3,39.43,151.36,37.64,162.1Zm60.06-58c-2-6.64-10.73-17.89-17.38-9.71C73.93,102,82.88,123,98.73,123.76A49.54,49.54,0,0,0,97.7,104.08Z"/>
      </g>
    </g>
  </g>
</svg>
